<?xml version="1.0" standalone="no"?>
<!DOCTYPE svg PUBLIC "-//W3C//DTD SVG 20010904//EN"
 "http://www.w3.org/TR/2001/REC-SVG-20010904/DTD/svg10.dtd">
<svg version="1.0" xmlns="http://www.w3.org/2000/svg"
 width="360.000000pt" height="50.000000pt" viewBox="0 0 360.000000 50.000000"
 preserveAspectRatio="xMidYMid meet">
<metadata>
Created by potrace 1.15, written by Peter Selinger 2001-2017
</metadata>
<g transform="translate(0.000000,50.000000) scale(0.100000,-0.100000)"
fill="#000000" stroke="none">
<path d="M1335 299 c-27 -66 -55 -125 -62 -131 -23 -19 -14 -28 27 -28 38 0
54 14 28 23 -10 3 -10 11 -3 33 10 27 14 29 60 29 46 0 50 -2 60 -29 7 -22 7
-30 -2 -33 -31 -11 -8 -23 42 -23 51 0 73 14 41 26 -7 3 -38 61 -67 130 -29
68 -58 124 -64 124 -5 0 -32 -54 -60 -121z"/>
<path d="M13 396 c14 -11 17 -30 17 -120 0 -86 -3 -108 -15 -112 -8 -4 -15
-11 -15 -16 0 -18 173 -3 209 18 82 48 80 189 -4 228 -44 21 -220 23 -192 2z
m148 -22 c60 -31 74 -127 24 -174 -13 -12 -41 -24 -64 -27 l-41 -6 0 112 0
111 25 0 c15 0 40 -7 56 -16z"/>
<path d="M875 348 c-19 -20 -25 -33 -17 -36 8 -2 12 -26 12 -68 0 -36 5 -74
10 -85 13 -23 47 -25 71 -3 16 15 20 15 41 0 35 -25 76 -20 109 13 28 29 37
51 21 51 -5 0 -17 -9 -27 -20 -24 -26 -60 -25 -79 2 -28 40 -21 48 44 48 51 0
60 3 60 18 0 38 -29 62 -75 62 -60 0 -88 -34 -83 -102 2 -37 0 -48 -14 -51
-25 -7 -28 0 -28 70 0 56 2 63 20 63 11 0 20 5 20 10 0 6 -9 10 -20 10 -15 0
-20 7 -20 25 0 33 -9 32 -45 -7z"/>
<path d="M572 324 c-28 -19 -30 -54 -2 -54 13 0 20 7 20 19 0 23 23 34 39 18
20 -20 12 -33 -34 -55 -82 -40 -69 -137 15 -105 17 6 34 7 44 1 10 -5 23 -5
36 2 24 13 26 30 5 30 -12 0 -15 14 -15 64 0 56 -3 67 -22 80 -12 9 -32 16
-43 16 -11 0 -31 -7 -43 -16z"/>
<path d="M1573 325 c-13 -9 -23 -27 -23 -41 0 -23 6 -31 62 -77 20 -15 25 -26
19 -36 -12 -18 -48 -5 -56 20 -10 31 -25 22 -25 -14 0 -33 1 -34 42 -35 52 -2
88 20 88 53 0 19 -12 34 -45 57 -46 33 -56 52 -30 61 8 4 22 -5 34 -21 l20
-27 1 33 c0 19 -5 32 -12 32 -7 0 -22 3 -33 6 -11 2 -30 -2 -42 -11z"/>
<path d="M1723 325 c-43 -30 -28 -70 42 -119 23 -16 25 -20 13 -33 -18 -17
-45 -8 -53 18 -10 31 -25 22 -25 -14 0 -33 1 -34 45 -35 33 -2 50 3 65 18 32
32 25 57 -25 92 -46 33 -56 52 -30 61 8 4 22 -5 34 -21 l20 -27 1 33 c0 19 -5
32 -12 32 -7 0 -22 3 -33 6 -11 2 -30 -2 -42 -11z"/>
<path d="M2244 331 c-23 -10 -38 -37 -28 -52 9 -15 34 -10 41 9 14 36 43 37
43 1 0 -13 -12 -25 -35 -35 -42 -17 -66 -51 -58 -82 7 -27 48 -40 75 -23 12 7
24 9 31 3 17 -13 147 -15 147 -2 0 5 -5 10 -10 10 -7 0 -10 25 -8 68 3 60 5
67 24 70 15 2 23 -4 28 -20 11 -41 6 -95 -9 -108 -26 -21 -17 -30 30 -30 42 0
58 11 35 25 -5 3 -10 34 -10 69 0 82 -26 114 -77 95 -12 -5 -25 -4 -28 1 -7
11 -65 -8 -65 -21 0 -5 5 -9 10 -9 11 0 14 -122 4 -133 -15 -14 -31 23 -37 82
-3 35 -9 67 -14 72 -14 14 -66 19 -89 10z"/>
<path d="M2625 331 c-63 -26 -82 -116 -36 -165 34 -36 74 -34 112 4 35 34 30
64 -5 31 -28 -26 -48 -27 -71 -1 -21 24 -24 72 -5 94 18 22 47 20 55 -4 8 -26
45 -27 45 -1 0 34 -55 58 -95 42z"/>
<path d="M3140 333 c-37 -13 -55 -84 -28 -111 8 -8 8 -15 -2 -27 -7 -8 -10
-24 -7 -35 3 -10 -1 -24 -9 -31 -20 -16 -17 -47 5 -59 31 -16 93 -12 129 10
24 15 32 27 32 50 0 36 -23 50 -79 50 -23 0 -41 5 -41 10 0 6 11 10 24 10 37
0 76 37 76 71 0 16 5 29 10 29 22 0 8 18 -19 23 -16 3 -39 8 -52 11 -13 3 -31
2 -39 -1z"/>
<path d="M2761 309 c-27 -29 -35 -72 -21 -114 13 -40 35 -55 80 -55 33 0 80
38 80 65 0 21 -13 19 -28 -5 -12 -20 -47 -26 -68 -12 -11 7 -34 45 -34 56 0 3
27 6 60 6 56 0 60 1 60 23 0 54 -89 79 -129 36z"/>
<path d="M3288 320 c-23 -14 -41 -74 -33 -110 14 -65 109 -94 153 -47 42 44
37 133 -9 157 -23 13 -89 12 -111 0z"/>
</g>
</svg>
