<?xml version="1.0" standalone="no"?>
<!DOCTYPE svg PUBLIC "-//W3C//DTD SVG 20010904//EN"
 "http://www.w3.org/TR/2001/REC-SVG-20010904/DTD/svg10.dtd">
<svg version="1.0" xmlns="http://www.w3.org/2000/svg"
 width="150.000000pt" height="150.000000pt" viewBox="0 0 150.000000 150.000000"
 preserveAspectRatio="xMidYMid meet">
<metadata>
Created by potrace 1.15, written by Peter Selinger 2001-2017
</metadata>
<g transform="translate(0.000000,150.000000) scale(0.100000,-0.100000)"
fill="#000000" stroke="none">
<path d="M565 1459 c-257 -74 -443 -261 -514 -519 -29 -104 -29 -276 0 -380
72 -260 259 -447 519 -519 104 -29 276 -29 380 0 260 72 447 259 519 519 29
104 29 276 0 380 -72 260 -259 447 -519 519 -102 29 -285 28 -385 0z m389
-449 c14 -5 30 -18 36 -29 9 -18 6 -22 -22 -35 -29 -12 -35 -11 -51 2 -13 12
-23 13 -34 6 -30 -19 -24 -32 22 -50 79 -30 96 -80 46 -136 -24 -27 -36 -32
-87 -36 -49 -3 -63 0 -86 18 -35 27 -36 53 -3 68 21 10 28 9 45 -8 21 -21 37
-24 64 -14 29 11 17 29 -36 55 -35 16 -56 33 -62 50 -25 73 81 142 168 109z
m270 -11 c21 -17 26 -18 26 -5 0 12 10 16 40 16 48 0 47 8 17 -155 l-22 -120
-40 0 c-34 0 -39 3 -37 19 3 17 2 17 -24 -3 -39 -31 -103 -29 -143 5 -37 31
-48 79 -31 138 28 101 146 159 214 105z m-657 -11 c-17 -68 -27 -151 -22 -168
4 -14 15 -20 33 -20 51 0 65 22 82 133 l13 77 42 0 42 0 -23 -127 c-13 -69
-25 -132 -28 -140 -8 -19 -76 -17 -76 2 0 19 -9 19 -34 0 -29 -22 -92 -19
-116 5 -23 23 -26 69 -9 169 15 93 14 91 60 91 38 0 41 -2 36 -22z m56 -338
l26 -20 6 20 c8 25 45 27 45 3 0 -50 -51 -285 -66 -308 -35 -53 -131 -79 -197
-52 -38 16 -42 23 -29 44 6 10 17 9 50 -4 35 -13 49 -14 82 -4 40 12 55 30 70
82 10 35 11 35 -35 8 -48 -29 -110 -21 -142 16 -49 56 -14 182 59 218 46 23
100 21 131 -3z m324 0 c85 -52 42 -209 -67 -241 -112 -34 -192 56 -146 164 35
83 141 121 213 77z m138 -80 c10 -55 21 -100 25 -100 3 0 31 44 61 98 40 72
60 98 77 100 12 2 22 0 22 -5 -1 -4 -31 -62 -69 -128 -63 -110 -71 -120 -100
-123 -17 -2 -31 -1 -31 3 0 3 -11 57 -25 121 -14 64 -25 120 -25 125 0 5 11 9
24 9 22 0 25 -6 41 -100z"/>
<path d="M1117 932 c-31 -34 -41 -79 -24 -106 42 -64 137 -17 137 68 0 50 -79
76 -113 38z"/>
<path d="M512 617 c-34 -20 -55 -55 -56 -99 -2 -81 84 -103 148 -38 77 77 2
189 -92 137z"/>
<path d="M804 596 c-45 -45 -48 -103 -7 -136 35 -28 77 -20 118 20 58 59 30
150 -47 150 -21 0 -40 -10 -64 -34z"/>
</g>
</svg>
