<?xml version="1.0" standalone="no"?>
<!DOCTYPE svg PUBLIC "-//W3C//DTD SVG 20010904//EN"
 "http://www.w3.org/TR/2001/REC-SVG-20010904/DTD/svg10.dtd">
<svg version="1.0" xmlns="http://www.w3.org/2000/svg"
 width="211.000000pt" height="70.000000pt" viewBox="0 0 211.000000 70.000000"
 preserveAspectRatio="xMidYMid meet">
<metadata>
Created by potrace 1.15, written by Peter Selinger 2001-2017
</metadata>
<g transform="translate(0.000000,70.000000) scale(0.100000,-0.100000)"
fill="#000000" stroke="none">
<path d="M836 505 c-20 -52 -36 -97 -36 -100 0 -13 68 -4 74 10 3 9 18 15 36
15 20 0 30 -5 30 -15 0 -10 11 -15 35 -15 21 0 35 5 35 13 0 6 -14 51 -32 100
l-32 87 -37 0 -36 0 -37 -95z"/>
<path d="M250 520 l0 -70 -75 0 -75 0 0 -70 0 -69 73 -3 72 -3 3 -67 3 -68 69
0 70 0 0 70 0 70 70 0 70 0 0 70 0 70 -70 0 -70 0 0 70 0 70 -70 0 -70 0 0
-70z"/>
<path d="M1318 548 c-52 -18 -58 -111 -9 -137 31 -17 77 -13 102 9 21 17 22
21 9 30 -10 6 -11 10 -2 10 18 0 15 45 -5 68 -22 25 -60 33 -95 20z"/>
<path d="M1673 550 c-45 -18 -58 -95 -23 -130 26 -26 80 -26 114 1 21 16 26
17 26 5 0 -19 21 -25 90 -25 l56 0 -4 67 c-3 37 -10 70 -16 74 -18 12 -101 9
-114 -4 -16 -16 -15 -38 2 -38 11 0 9 -7 -7 -24 -17 -19 -26 -22 -40 -14 -12
6 -23 6 -32 -2 -18 -15 -35 -5 -35 20 0 25 17 35 35 20 10 -8 19 -8 34 0 29
15 26 27 -9 45 -33 17 -45 18 -77 5z"/>
<path d="M621 500 c31 -81 24 -195 -16 -269 -33 -60 -87 -110 -154 -143 -57
-28 -195 -31 -251 -5 -89 40 -155 109 -186 194 -7 22 -13 29 -13 18 -1 -31 42
-127 73 -166 67 -84 198 -137 302 -124 167 21 298 165 298 330 1 75 -21 153
-54 195 -19 24 -19 23 1 -30z"/>
<path d="M1020 475 l0 -75 29 0 c28 0 30 2 33 48 2 26 8 47 13 47 6 0 11 -21
13 -47 3 -46 5 -48 32 -48 27 0 29 3 32 47 4 66 28 70 28 4 0 -50 1 -51 30
-51 l30 0 0 69 c0 83 6 79 -137 80 l-103 1 0 -75z"/>
<path d="M1950 475 l0 -75 29 0 c28 0 30 2 33 47 4 66 28 70 28 4 0 -50 1 -51
30 -51 l31 0 -3 73 -3 72 -72 2 -73 2 0 -74z"/>
<path d="M1389 331 c-24 -24 -29 -38 -29 -76 0 -39 5 -52 30 -77 28 -27 36
-30 76 -25 44 5 84 29 84 52 0 6 -12 17 -27 24 -22 10 -28 10 -35 -3 -25 -44
-82 8 -59 53 14 25 46 28 59 5 7 -13 13 -13 35 -3 36 16 34 35 -5 59 -48 29
-94 26 -129 -9z"/>
<path d="M800 255 l0 -95 34 0 c32 0 35 3 38 33 l3 32 20 -32 c16 -28 25 -33
58 -33 l39 0 -23 36 c-20 33 -20 37 -5 52 15 15 16 14 16 -20 0 -64 74 -100
128 -62 28 19 28 32 0 44 -23 9 -23 9 2 9 18 1 29 -7 38 -28 16 -37 31 -42 98
-35 l54 7 0 93 0 94 -35 0 c-31 0 -35 -3 -35 -26 0 -14 -4 -23 -10 -19 -20 13
-62 -8 -75 -38 l-12 -29 -6 24 c-7 25 -43 48 -76 48 -10 0 -30 -9 -45 -21
l-26 -20 0 25 c0 43 -24 56 -106 56 l-74 0 0 -95z"/>
<path d="M1603 303 l-43 -4 0 -70 0 -69 29 0 c28 0 30 3 33 42 2 31 8 44 21
46 13 3 17 -3 17 -23 0 -88 146 -102 165 -15 5 24 9 27 20 17 11 -10 11 -13
-1 -20 -22 -12 -17 -33 11 -45 35 -16 67 -15 90 2 17 12 23 12 47 0 32 -17 72
-18 99 -4 21 12 27 74 9 85 -8 5 -7 12 2 22 26 32 -56 58 -103 33 -21 -12 -26
-59 -9 -76 8 -8 6 -15 -5 -24 -13 -10 -15 -9 -15 8 0 11 -7 25 -15 32 -14 12
-14 15 1 31 16 17 15 19 -10 29 -54 20 -90 9 -114 -35 -10 -17 -11 -17 -12 -3
-1 48 -95 64 -135 23 l-25 -24 0 24 c0 14 -3 24 -7 23 -5 -1 -27 -3 -50 -5z"/>
</g>
</svg>
